<svg width="181" height="56" viewBox="0 0 181 56" fill="none" xmlns="http://www.w3.org/2000/svg">
<g clip-path="url(#clip0)">
<path d="M55.4459 54.4902C56.2742 53.594 56.7291 52.4182 56.7185 51.2009V51.1001L55.9399 46.0994L51.4353 17.1428L49.1715 2.619L46.5544 16.7134L40.1132 51.3083L40.1655 51.5523C40.3823 52.6358 40.8783 53.6448 41.6049 54.4805H34.8627C35.8884 53.7448 36.6021 52.6558 36.8647 51.4254L45.8544 3.09402L46.4269 0.0324306H57.834L65.9437 52.1509L65.9666 52.229C66.251 53.1304 66.8115 53.9209 67.5695 54.4902H55.4459Z" fill="black"/>
<path d="M85.5847 3.71219C85.5865 3.4325 85.6148 3.15361 85.6693 2.87928C85.5914 3.1496 85.5628 3.43173 85.5847 3.71219Z" fill="black"/>
<path d="M38.4546 46.5259H57.9681C57.8529 46.0044 57.7021 45.4913 57.5167 44.9902H38.6738C38.6247 45.4945 38.5495 46.0053 38.4546 46.5259Z" fill="black"/>
<path d="M153.462 46.5259H172.975C172.862 46.004 172.711 45.4908 172.524 44.9902H153.681C153.632 45.4945 153.557 46.0053 153.462 46.5259Z" fill="black"/>
<path d="M168.88 54.4902C169.707 53.5935 170.161 52.4178 170.149 51.2009V51.1001L169.37 46.0994L162.602 2.619L159.985 16.7134L153.547 51.3083L153.596 51.5523C153.816 52.6349 154.311 53.6432 155.035 54.4805H148.293C149.32 53.7459 150.034 52.6564 150.295 51.4254L159.288 3.09402L159.861 0.0324306H171.268L179.374 52.1509L179.397 52.229C179.682 53.1304 180.242 53.9209 181 54.4902H168.88Z" fill="black"/>
<path d="M93.773 0.0390425C93.4884 0.0195213 93.2103 0.00976063 92.9519 0H93.6062L93.773 0.0390425Z" fill="black"/>
<path d="M85.6693 2.87928C85.6148 3.15361 85.5865 3.4325 85.5847 3.71219C85.5628 3.43173 85.5914 3.1496 85.6693 2.87928Z" fill="black"/>
<path d="M109.639 37.7411C109.341 32.1353 104.882 28.5076 98.2874 24.7822L95.124 22.9993C95.124 22.9993 95.6671 22.97 98.7029 22.3714C105.599 21.0081 106.93 15.5389 107.042 13.4924C107.225 9.96886 107.284 5.27725 102.91 2.55729C100.038 0.77109 96.4129 0.198466 93.773 0.0390425C93.4884 0.0195213 93.2103 0.00976063 92.9519 0H85.5586V0.0292819H75.0903C75.5629 0.439992 75.9429 0.945281 76.2056 1.5121C76.4683 2.07893 76.6077 2.69452 76.6148 3.31862V51.201C76.6079 51.8252 76.4686 52.4408 76.2059 53.0077C75.9432 53.5745 75.563 54.0798 75.0903 54.4904H85.5586L92.0588 54.871C93.243 54.9751 94.5875 55.0467 96.0237 55.0467C99.9493 55.0467 103.391 53.677 105.759 51.1978C108.641 48.1752 109.946 43.6496 109.639 37.7411ZM86.6578 4.14827C86.7883 3.58342 87.1194 3.08437 87.5901 2.74274C88.1168 2.35882 88.8987 2.09203 90.1123 2.09203C91.6433 2.09203 92.6542 2.39136 93.3215 2.74274C93.7278 2.9944 94.0774 3.32667 94.3487 3.7188C94.4621 3.87012 94.5555 4.03522 94.6268 4.21009C95.9353 7.46363 96.0498 11.8462 96.0564 12.139C96.1283 16.2319 95.6474 20.0223 94.6301 21.828C90.6456 20.1232 87.2565 18.2003 86.5891 16.0627V4.93888C86.5719 4.67341 86.5951 4.40687 86.6578 4.14827ZM96.1447 47.5798C95.546 50.3291 93.3968 52.2975 90.8844 52.3983C90.7241 52.3983 90.5572 52.3983 90.3871 52.3983C90.0996 52.3953 89.8129 52.3681 89.53 52.317C88.8898 52.1856 88.3017 51.8722 87.8371 51.4147C87.3726 50.9573 87.0515 50.3756 86.913 49.7402C86.8966 49.6816 86.8868 49.6231 86.8737 49.5677C86.6673 48.3051 86.571 47.0272 86.5858 45.7481V20.1915C87.9901 21.6219 89.6311 22.8017 91.4372 23.6793L91.8985 23.907C92.8671 24.3806 93.7269 25.0481 94.4238 25.8678C95.1208 26.6875 95.6398 27.6416 95.9484 28.6702C96.5536 30.72 96.9036 33.5278 96.9036 37.5687C96.9036 41.2257 96.763 44.7655 96.148 47.5798H96.1447Z" fill="black"/>
<path d="M144.74 41.808C144.74 33.6514 137.023 26.191 131.397 20.7413C130.458 19.8336 129.575 18.9779 128.78 18.1808C124.9 14.2343 123.81 9.43528 124.383 5.60911C124.563 4.65582 125.469 1.18754 130.373 1.33721C132.732 1.43155 134.977 2.37234 136.693 3.98559C137.188 4.42771 137.643 4.91337 138.051 5.43667C138.028 5.48873 137.998 5.53753 137.972 5.59284C137.004 7.56477 136.237 9.62802 135.682 11.7518C135.308 13.2416 135.115 14.771 135.11 16.3068C135.093 17.3775 135.49 18.4137 136.219 19.2024C136.932 19.954 137.998 20.4648 139.425 19.5082C141.449 18.145 140.363 14.9533 136.382 13.512C136.326 12.0671 136.548 10.6248 137.036 9.26284H137.017C137.429 8.08647 137.918 6.93776 138.479 5.82384C139.099 4.49511 139.814 3.21212 140.619 1.98466L140.661 1.91634C141.315 0.910992 141.773 0.338369 141.777 0.331861L141.322 0C141.302 0.0260284 140.828 0.62468 140.134 1.69835L140.095 1.76017C140.046 1.84476 139.987 1.93586 139.925 2.03346C139.685 2.10848 139.434 2.14795 139.182 2.15059C138.831 2.14959 138.484 2.07301 138.165 1.9261C137.786 1.75366 137.4 1.60074 137.014 1.45759H136.971C136.349 1.22008 128.701 -1.56495 122.453 1.45759C121.785 1.71658 121.138 2.02434 120.516 2.37834C117.33 4.20358 115.72 6.8845 115.72 10.343C115.72 17.6407 119.855 21.7955 124.641 26.6107C125.296 27.2614 125.976 27.9512 126.643 28.6409C134.393 36.6577 134.933 39.2377 135.417 44.3165C135.481 44.937 135.494 45.5615 135.456 46.1841C135.355 47.7946 135.028 50.3714 132.888 52.6261C131.102 54.5099 128.485 55.0337 125.796 55.0337C125.577 55.0337 125.328 55.0337 125.054 54.9947C122.175 54.7051 119.456 53.8104 117.69 51.5914C116.882 50.5834 116.293 49.4195 115.961 48.1734C115.628 46.9273 115.56 45.6261 115.76 44.3523L115.825 43.848L115.321 43.7927L113.895 55.9479L114.405 56.0065C114.776 55.2883 115.405 54.7358 116.168 54.4595C116.93 54.1832 117.769 54.2035 118.517 54.5164C120.788 55.4613 123.224 55.9521 125.685 55.961C128.57 55.961 132.228 55.6909 135.6 54.6595C137.931 53.9195 140.004 52.542 141.584 50.6847C143.164 48.8274 144.187 46.5652 144.534 44.1571C144.674 43.3818 144.743 42.5956 144.74 41.808Z" fill="black"/>
<path d="M28.3854 43.4022C28.3854 48.956 23.6027 53.4556 17.698 53.4556H15.1398C13.8868 53.4556 10.4945 53.3678 10.4945 50.2476V3.31851C10.5007 2.69507 10.6395 2.08 10.9017 1.51366C11.1638 0.947331 11.5435 0.442542 12.0156 0.0324306H0C0.47217 0.442542 0.851796 0.947331 1.11396 1.51366C1.37612 2.08 1.5149 2.69507 1.52117 3.31851V51.2009C1.51412 51.8247 1.37502 52.44 1.11292 53.0068C0.850825 53.5735 0.471617 54.079 0 54.4902H29.0331V43.4022H28.3854Z" fill="black"/>
</g>
<defs>
<clipPath id="clip0">
<rect width="181" height="56" fill="white"/>
</clipPath>
</defs>
</svg>
