<svg width="36" height="36" viewBox="0 0 36 36" fill="none" xmlns="http://www.w3.org/2000/svg">
<path d="M18 0.75C8.48553 0.75 0.75 8.48555 0.75 18C0.75 27.5145 8.48553 35.25 18 35.25C27.5144 35.25 35.2499 27.5145 35.2499 18C35.2769 8.48555 27.5414 0.75 18 0.75ZM18 33.8754C9.26717 33.8754 2.12461 26.7328 2.12461 18C2.12461 9.26719 9.26717 2.12461 18 2.12461C26.7328 2.12461 33.8753 9.24023 33.8753 18C33.9023 26.7328 26.7867 33.8754 18 33.8754Z" fill="white"/>
<path d="M19.9138 22.2318C19.8059 22.3935 19.6173 22.5014 19.4556 22.5014C19.2399 22.5014 19.1052 22.4474 18.9434 22.3396C18.7817 22.1779 18.6739 22.0431 18.6739 21.7736C18.6739 21.6119 18.7278 21.4232 18.8356 21.3154L20.9649 18.8896H13.3103C12.906 18.8896 12.5825 18.5931 12.5825 18.1619C12.5825 17.7306 12.879 17.4342 13.3103 17.4342H20.911L18.7817 15.0084C18.6739 14.8467 18.62 14.7119 18.62 14.5502C18.62 14.3346 18.7278 14.1459 18.8895 13.9842C19.0513 13.8763 19.213 13.7685 19.4016 13.8224C19.6173 13.8224 19.752 13.9303 19.8598 14.092L23.4177 18.1619L19.9138 22.2318Z" fill="white"/>
</svg>
