<svg width="16" height="16" viewBox="0 0 16 16" fill="none" xmlns="http://www.w3.org/2000/svg">
<path d="M7.9577 4.7124C5.98239 4.7124 4.3457 6.32087 4.3457 8.32439C4.3457 10.3279 5.95417 11.9364 7.9577 11.9364C9.96122 11.9364 11.5697 10.2997 11.5697 8.32439C11.5697 6.34909 9.933 4.7124 7.9577 4.7124ZM7.9577 10.6383C6.68786 10.6383 5.64376 9.59424 5.64376 8.32439C5.64376 7.05455 6.68786 6.01046 7.9577 6.01046C9.22754 6.01046 10.2716 7.05455 10.2716 8.32439C10.2716 9.59424 9.22754 10.6383 7.9577 10.6383Z" fill="white"/>
<path d="M11.7108 5.44625C12.1628 5.44625 12.5291 5.07987 12.5291 4.62791C12.5291 4.17595 12.1628 3.80957 11.7108 3.80957C11.2588 3.80957 10.8925 4.17595 10.8925 4.62791C10.8925 5.07987 11.2588 5.44625 11.7108 5.44625Z" fill="white"/>
<path d="M13.8272 2.51146C13.0935 1.74955 12.0494 1.35449 10.8642 1.35449H5.05118C2.59616 1.35449 0.959473 2.99118 0.959473 5.4462V11.231C0.959473 12.4444 1.35453 13.4885 2.14466 14.2504C2.90656 14.9841 3.92244 15.351 5.0794 15.351H10.836C12.0494 15.351 13.0653 14.9559 13.799 14.2504C14.5609 13.5168 14.9559 12.4727 14.9559 11.2593V5.4462C14.9559 4.26102 14.5609 3.24514 13.8272 2.51146ZM13.7143 11.2593C13.7143 12.134 13.4039 12.8395 12.896 13.3192C12.388 13.7989 11.6826 14.0529 10.836 14.0529H5.0794C4.23284 14.0529 3.52737 13.7989 3.01944 13.3192C2.5115 12.8113 2.25753 12.1058 2.25753 11.231V5.4462C2.25753 4.59964 2.5115 3.89417 3.01944 3.38624C3.49915 2.90652 4.23284 2.65255 5.0794 2.65255H10.8925C11.739 2.65255 12.4445 2.90652 12.9524 3.41446C13.4321 3.92239 13.7143 4.62786 13.7143 5.4462V11.2593Z" fill="white"/>
</svg>
