<svg width="48" height="48" viewBox="0 0 48 48" fill="none" xmlns="http://www.w3.org/2000/svg">
<g clip-path="url(#clip0)">
<path d="M48 24.0001C48 37.2217 37.2216 48.0001 24 48.0001C10.7784 48.0001 4.71141e-07 37.2217 1.04907e-06 24.0001C1.62701e-06 10.7785 10.7784 9.75551e-05 24 9.81331e-05C37.2216 -0.0478063 48 10.7306 48 24.0001Z" fill="#CA9852"/>
<path d="M22.0359 27.7845C22.1317 27.9282 22.3233 28.024 22.4671 28.024C22.6587 28.024 22.8024 27.9761 22.9461 27.8803C23.0898 27.7366 23.1856 27.5929 23.1856 27.3534C23.1856 27.2097 23.1377 27.0181 23.0419 26.9222L21.0778 24.6708L28.1677 24.6708C28.5509 24.6708 28.8383 24.3833 28.8383 24.0001C28.8383 23.6169 28.5509 23.3294 28.1677 23.3294L21.1257 23.3294L23.0898 21.0779C23.1856 20.9342 23.2335 20.7905 23.2335 20.6468C23.2335 20.4552 23.1377 20.2636 22.994 20.1199C22.8503 20.024 22.7066 19.9282 22.515 19.9761C22.3233 19.9761 22.1796 20.0719 22.0838 20.2157L18.7784 24.0001L22.0359 27.7845Z" fill="white"/>
</g>
<defs>
<clipPath id="clip0">
<rect width="48.0002" height="48" fill="white" transform="matrix(4.37114e-08 -1 -1 -4.37114e-08 48 48.0001)"/>
</clipPath>
</defs>
</svg>
