<svg width="10" height="16" viewBox="0 0 10 16" fill="none" xmlns="http://www.w3.org/2000/svg">
<path d="M0.44917 8.96091L7.94948 15.2112C8.20445 15.4221 8.53261 15.5234 8.8621 15.4928C9.19158 15.4623 9.49554 15.3024 9.70741 15.0483C9.91927 14.7941 10.0218 14.4663 9.99249 14.1367C9.96319 13.8071 9.80448 13.5026 9.55111 13.2897L3.20319 8.00014L9.55111 2.71056C9.80546 2.49803 9.96505 2.19323 9.99482 1.86312C10.0246 1.533 9.92211 1.20457 9.70989 0.949965C9.49766 0.695361 9.19306 0.535406 8.86298 0.50524C8.5329 0.475074 8.20434 0.577163 7.94948 0.78908L0.44917 7.03945C0.308533 7.15695 0.195407 7.30389 0.11778 7.4699C0.0401542 7.6359 -7.94371e-05 7.81693 -7.94531e-05 8.00018C-7.94692e-05 8.18344 0.0401541 8.36447 0.11778 8.53047C0.195407 8.69648 0.308533 8.84342 0.44917 8.96091Z" fill="white"/>
</svg>
