<svg width="16" height="16" viewBox="0 0 16 16" fill="none" xmlns="http://www.w3.org/2000/svg">
<path d="M1.60394 5.80791H4.41678V14.2727H1.60394V5.80791ZM3.02919 1.72754C2.06647 1.72754 1.4375 2.35957 1.4375 3.18913C1.4375 4.00163 2.04806 4.65204 2.99237 4.65204H3.01031C3.99144 4.65204 4.60244 4.0016 4.60244 3.18913C4.58403 2.35957 3.99147 1.72754 3.02919 1.72754ZM11.3231 5.60907C9.83 5.60907 9.16109 6.43032 8.78794 7.00626V5.80791H5.97425C6.0115 6.60201 5.97425 14.2727 5.97425 14.2727H8.78794V9.54535C8.78794 9.29216 8.80634 9.03992 8.88037 8.85854C9.08409 8.3531 9.54703 7.8297 10.3236 7.8297C11.3424 7.8297 11.7493 8.60629 11.7493 9.7437V14.2726H14.5625V9.41879C14.5625 6.81882 13.1749 5.60907 11.3231 5.60907Z" fill="white"/>
</svg>
