<svg width="48" height="48" viewBox="0 0 48 48" fill="none" xmlns="http://www.w3.org/2000/svg">
<g clip-path="url(#clip0)">
<path d="M0.000121021 24.0001C0.000121599 37.2217 10.7786 48.0001 24.0001 48.0001C37.2217 48.0001 48.0001 37.2217 48.0001 24.0001C48.0001 10.7785 37.2217 9.75551e-05 24.0001 9.81331e-05C10.7786 -0.0478063 0.000120441 10.7306 0.000121021 24.0001Z" fill="#CA9852"/>
<path d="M25.9643 27.7845C25.8685 27.9282 25.6768 28.024 25.5331 28.024C25.3415 28.024 25.1978 27.9761 25.0541 27.8803C24.9104 27.7366 24.8146 27.5929 24.8146 27.3534C24.8146 27.2097 24.8625 27.0181 24.9583 26.9222L26.9223 24.6708L19.8325 24.6708C19.4493 24.6708 19.1619 24.3833 19.1619 24.0001C19.1619 23.6169 19.4493 23.3294 19.8325 23.3294L26.8744 23.3294L24.9104 21.0779C24.8146 20.9342 24.7667 20.7905 24.7667 20.6468C24.7667 20.4552 24.8625 20.2636 25.0062 20.1199C25.1499 20.024 25.2936 19.9282 25.4852 19.9761C25.6768 19.9761 25.8205 20.0719 25.9164 20.2157L29.2217 24.0001L25.9643 27.7845Z" fill="white"/>
</g>
<defs>
<clipPath id="clip0">
<rect width="48.0002" height="48" fill="white" transform="translate(0.00012207 48.0001) rotate(-90)"/>
</clipPath>
</defs>
</svg>
