<svg width="10" height="16" viewBox="0 0 10 16" fill="none" xmlns="http://www.w3.org/2000/svg">
<path d="M9.55083 7.03909L2.05052 0.788814C1.79555 0.577907 1.46739 0.476634 1.1379 0.507172C0.808416 0.53771 0.50446 0.697571 0.292593 0.951746C0.0807257 1.20592 -0.0217843 1.5337 0.00751067 1.86329C0.0368056 2.19289 0.195518 2.49745 0.448892 2.71027L6.79681 7.99986L0.448892 13.2894C0.194541 13.502 0.0349521 13.8068 0.00518092 14.1369C-0.0245902 14.467 0.0778918 14.7954 0.290115 15.05C0.502337 15.3046 0.806945 15.4646 1.13702 15.4948C1.4671 15.5249 1.79566 15.4228 2.05052 15.2109L9.55083 8.96054C9.69147 8.84305 9.80459 8.69611 9.88222 8.5301C9.95985 8.3641 10.0001 8.18307 10.0001 7.99981C10.0001 7.81656 9.95985 7.63553 9.88222 7.46953C9.80459 7.30352 9.69147 7.15658 9.55083 7.03909Z" fill="white"/>
</svg>
