<svg width="36" height="36" viewBox="0 0 36 36" fill="none" xmlns="http://www.w3.org/2000/svg">
<path d="M1.125 18C1.125 8.6625 8.6625 1.125 18 1.125C27.3375 1.125 34.875 8.6625 34.875 18C34.875 27.3375 27.3375 34.875 18 34.875C8.6625 34.875 1.125 27.3375 1.125 18ZM32.625 18C32.625 9.9 26.1 3.375 18 3.375C9.9 3.375 3.375 9.9 3.375 18C3.375 26.1 9.9 32.625 18 32.625C26.1 32.625 32.625 26.1 32.625 18Z" fill="black"/>
<path d="M18.9 23.0623C18.5625 23.0623 18.3375 22.9498 18.1125 22.8373C17.8875 22.6123 17.6625 22.3873 17.6625 21.8248C17.6625 21.4873 17.775 21.2623 18 21.0373L19.575 19.3498H12.7125C12.0375 19.3498 11.475 18.7873 11.475 18.1123C11.475 17.4373 11.925 16.8748 12.7125 16.8748H19.575L18 15.0748C17.8875 14.8498 17.775 14.6248 17.775 14.2873C17.775 14.0623 17.8875 13.7248 18.225 13.3873C18.45 13.2748 18.675 13.0498 19.0125 13.0498H19.125H19.2375C19.575 13.0498 19.8 13.2748 20.025 13.4998L23.5125 17.4373C23.7375 17.6623 23.7375 18.1123 23.5125 18.4498L20.025 22.4998C19.575 22.9498 19.2375 23.0623 18.9 23.0623Z" fill="black"/>
</svg>
