<svg width="48" height="48" viewBox="0 0 48 48" fill="none" xmlns="http://www.w3.org/2000/svg">
<path d="M24 0C10.7784 0 0 10.7784 0 24C0 37.2216 10.7784 48 24 48C37.2216 48 48 37.2216 48 24C48.0479 10.7784 37.2695 0 24 0ZM24 46.0838C11.8323 46.0838 1.91617 36.1677 1.91617 24C1.91617 11.8323 11.8323 1.91617 24 1.91617C36.1677 1.91617 46.0839 11.8323 46.0839 24C46.1318 36.1677 36.2156 46.0838 24 46.0838Z" fill="white"/>
<path d="M20.2155 25.9641C20.0718 25.8683 19.976 25.6767 19.976 25.533C19.976 25.3414 20.0239 25.1977 20.1197 25.054C20.2634 24.9102 20.4072 24.8144 20.6467 24.8144C20.7904 24.8144 20.982 24.8623 21.0778 24.9582L23.3293 26.9222V19.8324C23.3293 19.4492 23.6167 19.1617 24 19.1617C24.3832 19.1617 24.6706 19.4492 24.6706 19.8324V26.8743L26.9221 24.9102C27.0658 24.8144 27.2096 24.7665 27.3533 24.7665C27.5449 24.7665 27.7365 24.8623 27.8802 25.0061C27.976 25.1498 28.0718 25.2935 28.0239 25.4851C28.0239 25.6767 27.9281 25.8204 27.7844 25.9162L24 29.2216L20.2155 25.9641Z" fill="white"/>
</svg>
