<svg width="16" height="16" viewBox="0 0 16 16" fill="none" xmlns="http://www.w3.org/2000/svg">
<path d="M14.9118 4.25151C14.4007 4.4787 13.8506 4.63195 13.2735 4.70053C13.8627 4.34775 14.3146 3.78895 14.5277 3.12234C13.9765 3.44944 13.3663 3.68679 12.7164 3.81491C12.1962 3.26063 11.4548 2.91406 10.6344 2.91406C9.05933 2.91406 7.78227 4.19112 7.78227 5.76648C7.78227 5.98972 7.80739 6.20731 7.85622 6.41644C5.48555 6.29734 3.38356 5.16196 1.97669 3.43617C1.73115 3.85725 1.59061 4.34718 1.59061 4.87042C1.59061 5.85989 2.09409 6.73309 2.85948 7.24447C2.39212 7.22952 1.95213 7.10111 1.56747 6.88746C1.56718 6.89932 1.56718 6.91145 1.56718 6.92359C1.56718 8.30535 2.55044 9.45794 3.85544 9.72041C3.61611 9.78532 3.36409 9.82031 3.10388 9.82031C2.91987 9.82031 2.74123 9.80253 2.5671 9.76895C2.93032 10.9021 3.98357 11.727 5.23155 11.7499C4.25535 12.515 3.02571 12.971 1.6891 12.971C1.45909 12.971 1.2319 12.9575 1.00867 12.931C2.27133 13.7407 3.77049 14.2125 5.38113 14.2125C10.6279 14.2125 13.4967 9.86632 13.4967 6.09696C13.4967 5.97335 13.4942 5.85002 13.4888 5.72753C14.0459 5.32621 14.5296 4.82358 14.9118 4.25151Z" fill="white"/>
</svg>
