<svg width="16" height="16" viewBox="0 0 16 16" fill="none" xmlns="http://www.w3.org/2000/svg">
<path fill-rule="evenodd" clip-rule="evenodd" d="M13.0895 3.02383C11.7768 1.70967 10.0312 0.985625 8.17133 0.984863C4.33918 0.984863 1.2202 4.10358 1.21871 7.93692C1.21817 9.16232 1.53832 10.3584 2.14677 11.4127L1.1604 15.0155L4.84608 14.0487C5.86157 14.6026 7.00493 14.8945 8.16856 14.8949H8.17138C8.17161 14.8949 8.17121 14.8949 8.17144 14.8949C12.0032 14.8949 15.1224 11.7759 15.124 7.94248C15.1246 6.08472 14.4021 4.33794 13.0895 3.02383ZM8.17135 13.7207H8.16901C7.13213 13.7203 6.11509 13.4417 5.22784 12.9153L5.01685 12.79L2.82971 13.3637L3.41352 11.2313L3.2761 11.0127C2.69766 10.0926 2.39216 9.0292 2.39261 7.93731C2.39385 4.7512 4.98623 2.1591 8.1737 2.1591C9.71717 2.15958 11.1681 2.76148 12.2591 3.85376C13.3502 4.94604 13.9507 6.39793 13.95 7.942C13.9487 11.1284 11.3565 13.7207 8.17135 13.7207Z" fill="white"/>
<path fill-rule="evenodd" clip-rule="evenodd" d="M11.3411 9.39261C11.1674 9.30566 10.3132 8.88546 10.154 8.82744C9.99478 8.76947 9.87896 8.74048 9.76316 8.91439C9.64737 9.08826 9.31443 9.47959 9.21308 9.59556C9.11176 9.71144 9.01039 9.72603 8.83671 9.63899C8.663 9.55204 8.10325 9.36862 7.43971 8.77678C6.92325 8.31611 6.57462 7.74726 6.47325 7.5733C6.37193 7.39942 6.46246 7.30541 6.54945 7.21877C6.62759 7.14091 6.72318 7.01588 6.81005 6.91442C6.89689 6.81302 6.92584 6.74049 6.98376 6.62464C7.04167 6.50867 7.01274 6.40721 6.96928 6.32029C6.92584 6.23334 6.57843 5.37826 6.43368 5.03037C6.29262 4.69167 6.14942 4.73756 6.04277 4.73217C5.9416 4.72712 5.82563 4.72607 5.70984 4.72607C5.59404 4.72607 5.4058 4.76956 5.2466 4.94344C5.08737 5.11737 4.63855 5.53769 4.63855 6.39268C4.63855 7.24778 5.26105 8.07385 5.34791 8.18975C5.43475 8.30575 6.5729 10.0604 8.31556 10.8129C8.73003 10.9919 9.05363 11.0988 9.30591 11.1788C9.72207 11.311 10.1008 11.2924 10.4001 11.2476C10.7339 11.1978 11.4279 10.8274 11.5727 10.4216C11.7175 10.0158 11.7175 9.66795 11.674 9.59553C11.6306 9.52308 11.5148 9.47959 11.3411 9.39261Z" fill="white"/>
</svg>
